<svg id="Github" xmlns="http://www.w3.org/2000/svg" width="36" height="36" viewBox="0 0 36 36">
  <path id="Icon_simple-github" data-name="Icon simple-github" d="M13,.445A13.167,13.167,0,0,0,0,13.776,13.3,13.3,0,0,0,8.889,26.422c.65.126.888-.287.888-.641,0-.317-.011-1.155-.016-2.266-3.616.8-4.379-1.788-4.379-1.788a3.511,3.511,0,0,0-1.446-1.95c-1.178-.826.091-.81.091-.81a2.734,2.734,0,0,1,1.991,1.373A2.732,2.732,0,0,0,9.8,21.449a2.87,2.87,0,0,1,.823-1.783c-2.887-.333-5.921-1.48-5.921-6.587A5.216,5.216,0,0,1,6.044,9.5a4.851,4.851,0,0,1,.114-3.528S7.246,5.616,9.733,7.34a11.964,11.964,0,0,1,6.5,0c2.47-1.724,3.559-1.366,3.559-1.366a4.986,4.986,0,0,1,.13,3.528,5.237,5.237,0,0,1,1.332,3.577c0,5.121-3.039,6.248-5.931,6.576a3.235,3.235,0,0,1,.878,2.466c0,1.784-.016,3.217-.016,3.65,0,.35.227.766.894.633A13.256,13.256,0,0,0,26,13.776,13.169,13.169,0,0,0,13,.445" transform="translate(4.912 4.672)" fill="#fff"/>
  <g id="Ellipse_2" data-name="Ellipse 2" fill="none" stroke="#43a1ff" stroke-width="2">
    <circle cx="18" cy="18" r="18" stroke="none"/>
    <circle cx="18" cy="18" r="17" fill="none"/>
  </g>
</svg>
