<svg xmlns="http://www.w3.org/2000/svg" width="228.209" height="168.149" viewBox="0 0 228.209 168.149">
  <path id="Icon_awesome-laptop-code" data-name="Icon awesome-laptop-code" d="M90.938,85.93a6.057,6.057,0,0,0,8.069,0l4.033-3.714a4.967,4.967,0,0,0,0-7.432L90.3,63.056l12.733-11.731a4.967,4.967,0,0,0,0-7.432L99,40.178a6.057,6.057,0,0,0-8.069,0l-20.8,19.16a4.967,4.967,0,0,0,0,7.432L90.938,85.93Zm34.235-3.711,4.033,3.714a6.057,6.057,0,0,0,8.069,0l20.8-19.16a4.967,4.967,0,0,0,0-7.432l-20.8-19.16a6.057,6.057,0,0,0-8.069,0L125.172,43.9a4.967,4.967,0,0,0,0,7.432l12.733,11.728L125.172,74.787a4.967,4.967,0,0,0,0,7.432Zm97.331,54.4H136.048c-.264,6.506-5.245,10.509-11.674,10.509h-21.68c-6.664,0-11.774-5.737-11.685-10.509H5.705A5.51,5.51,0,0,0,0,141.876v5.255c0,11.56,10.269,21.019,22.821,21.019H205.388c12.551,0,22.821-9.458,22.821-21.019v-5.255A5.51,5.51,0,0,0,222.5,136.621ZM205.388,15.764c0-8.67-7.7-15.764-17.116-15.764H39.936C30.523,0,22.821,7.094,22.821,15.764V126.112H205.388Zm-22.821,89.329H45.642V21.019H182.567Z" fill="#fff"/>
</svg>
